<?xml version="1.0" encoding="UTF-8" standalone="no"?>
<!DOCTYPE svg PUBLIC "-//W3C//DTD SVG 1.1//EN" "http://www.w3.org/Graphics/SVG/1.1/DTD/svg11.dtd">
<svg width="100%" height="100%" viewBox="0 0 256 256" version="1.1" xmlns="http://www.w3.org/2000/svg" xmlns:xlink="http://www.w3.org/1999/xlink" xml:space="preserve" xmlns:serif="http://www.serif.com/" style="fill-rule:evenodd;clip-rule:evenodd;stroke-linejoin:round;stroke-miterlimit:2;">
    <rect x="0" y="0" width="256" height="256" style="fill:url(#_Linear1);"/>
    <g transform="matrix(0.543855,0,0,0.543855,55.5275,55.5275)">
        <path d="M0,40.794L0,225.722C90.794,260.217 175.72,191.227 266.514,225.722L266.514,40.794C175.72,6.294 90.794,75.289 0,40.794ZM48.952,220.985C33.723,220.283 26.108,219.13 10.879,213.795L10.879,181.161C26.108,186.497 33.723,187.65 48.952,188.351L48.952,220.985ZM48.952,101.325C33.723,100.623 26.108,99.47 10.879,94.135L10.879,61.501C26.108,66.837 33.723,67.99 48.952,68.691L48.952,101.325ZM119.659,212.489C104.43,215.867 96.815,217.547 81.586,219.462L81.586,186.828C96.815,184.913 104.43,183.233 119.659,179.855L119.659,212.489ZM119.659,92.83C104.43,96.208 96.815,97.888 81.586,99.803L81.586,67.169C96.815,65.254 104.43,63.574 119.659,60.196L119.659,92.83ZM184.928,199.354C168.611,201.269 162.084,202.949 146.855,206.327L146.855,173.693C162.084,170.315 168.611,168.635 184.928,166.72L184.928,199.354ZM146.855,86.662L146.855,54.028C162.084,50.65 169.699,48.97 184.928,47.055L184.928,79.689C169.699,81.609 162.084,83.284 146.855,86.662ZM217.563,45.531C233.88,46.233 239.319,47.386 255.636,52.721L255.636,85.355C239.319,80.019 233.88,78.866 217.563,78.165L217.563,45.531ZM217.563,165.191C233.88,165.893 239.319,167.046 255.636,172.381L255.636,205.015C239.319,199.679 233.88,198.526 217.563,197.825L217.563,165.191Z" style="fill:white;fill-rule:nonzero;"/>
    </g>
    <defs>
        <linearGradient id="_Linear1" x1="0" y1="0" x2="1" y2="0" gradientUnits="userSpaceOnUse" gradientTransform="matrix(256,256,-256,256,7.10543e-15,0)"><stop offset="0" style="stop-color:black;stop-opacity:1"/><stop offset="1" style="stop-color:rgb(0,0,128);stop-opacity:1"/></linearGradient>
    </defs>
</svg>